Coordinates
version=1
nRows=17
nColumns=24
inDegrees=yes

Units are S.I. units (second, meters, Newtons, ...)
Angles are in degrees.

endheader
time	pelvis_tilt	pelvis_list	pelvis_rotation	pelvis_tx	pelvis_ty	pelvis_tz	hip_flexion_r	hip_adduction_r	hip_rotation_r	knee_angle_r	ankle_angle_r	subtalar_angle_r	mtp_angle_r	hip_flexion_l	hip_adduction_l	hip_rotation_l	knee_angle_l	ankle_angle_l	subtalar_angle_l	mtp_angle_l	lumbar_extension	lumbar_bending	lumbar_rotation
      2.06500000	     -5.73648242	      4.27337733	    359.42684245	     -0.33959044	      1.38637980	     -1.05914389	     29.27298330	     -3.76124917	      1.62685727	    -21.34611216	     -2.35636546	     -4.95340784	     14.26141463	      2.85248861	      8.81224704	      7.39026719	     -8.40496083	      3.93898801	     -5.79174387	     15.62860937	     -8.38278113	     -0.44299342	      9.03918076
      2.07000000	     -5.76286445	      4.37904385	    359.58844252	     -0.33449160	      1.38567690	     -1.05886704	     29.03524282	     -3.94492953	      1.70693471	    -19.28056821	     -3.07541386	     -5.14008594	     14.42064005	      2.49959958	      8.91462260	      7.56076492	     -8.31898548	      4.17240404	     -5.70866591	     15.37266023	     -8.40377175	     -0.54962557	      8.81941730
      2.07500000	     -5.85193105	      4.48061174	    359.74818773	     -0.32931258	      1.38486512	     -1.05861796	     28.84575265	     -4.12986610	      1.79832148	    -17.21912565	     -3.72969813	     -5.24817131	     14.81445543	      2.21629734	      9.01371046	      7.75086721	     -8.25185568	      4.48978741	     -5.59276585	     15.06358204	     -8.32081520	     -0.66964709	      8.73129899
      2.08000000	     -5.98287866	      4.59328642	    359.95185746	     -0.32410939	      1.38396041	     -1.05842376	     28.68779179	     -4.34980946	      1.85809220	    -15.19939935	     -4.23622086	     -5.26495862	     14.78480229	      1.98398371	      9.12967932	      8.02496844	     -8.19517213	      4.73408533	     -5.61131314	     14.98160258	     -8.18771140	     -0.79517913	      8.58467031
      2.08500000	     -6.02145439	      4.71224237	    360.11217470	     -0.31892057	      1.38312651	     -1.05815784	     28.40814644	     -4.55910316	      1.98864964	    -13.15812126	     -4.85673487	     -5.38167786	     15.17629807	      1.64269500	      9.24589286	      8.22379172	     -8.12590638	      4.97654067	     -5.57444178	     14.64332878	     -8.18269550	     -0.90757009	      8.39206055
      2.09000000	     -6.12327021	      4.85235646	    360.32403163	     -0.31372462	      1.38216560	     -1.05795782	     28.19848645	     -4.81799077	      2.06287045	    -11.19241327	     -5.36973436	     -5.40743217	     15.33311194	      1.38807993	      9.39169678	      8.51781393	     -8.09896791	      5.23507543	     -5.59720792	     14.44757322	     -8.10106099	     -1.05609003	      8.19697718
      2.09500000	     -6.20787586	      4.99521175	    360.52685492	     -0.30846750	      1.38117543	     -1.05775467	     27.96231361	     -5.08012144	      2.13519419	     -9.27570469	     -5.83355611	     -5.39268838	     15.57023861	      1.10511217	      9.53862424	      8.80176662	     -8.06366442	      5.49078777	     -5.62419690	     14.20932138	     -8.02883047	     -1.20161225	      8.02567981
      2.10000000	     -6.32649237	      5.15349645	    360.72942392	     -0.30317330	      1.38010486	     -1.05754422	     27.77592452	     -5.35775982	      2.19431846	     -7.45259559	     -6.25746559	     -5.34397614	     15.90796719	      0.86316333	      9.70197316	      9.08652011	     -8.04764408	      5.77514223	     -5.62311161	     13.90535292	     -7.90913258	     -1.37507043	      7.90705364
      2.10500000	     -6.41746474	      5.31421985	    360.94408015	     -0.29787479	      1.37902183	     -1.05732753	     27.57472205	     -5.64087980	      2.20983663	     -5.75050648	     -6.56405186	     -5.21398737	     15.94311611	      0.58952019	      9.86545104	      9.39834461	     -8.02857435	      6.00718010	     -5.69496914	     13.75491426	     -7.83206913	     -1.53296618	      7.68863793
      2.11000000	     -6.55651608	      5.48698559	    361.14553011	     -0.29256997	      1.37785802	     -1.05706543	     27.46350375	     -5.92207346	      2.21338698	     -4.20153378	     -6.80047519	     -5.02976130	     15.91636943	      0.38162058	     10.03801150	      9.67252044	     -8.03513903	      6.23097591	     -5.72096867	     13.70644210	     -7.68933383	     -1.74459015	      7.62876818
      2.11500000	     -6.59667113	      5.62827269	    361.36737560	     -0.28718438	      1.37680599	     -1.05686429	     27.24342764	     -6.18308593	      2.11224410	     -2.76387158	     -6.94583327	     -4.81044863	     16.08888603	      0.03515978	     10.17789223	     10.03809599	     -8.00861714	      6.50331196	     -5.80890532	     13.30416244	     -7.66736974	     -1.85337517	      7.35637829
      2.12000000	     -6.70884870	      5.77210449	    361.55684014	     -0.28182788	      1.37566259	     -1.05656153	     27.15951387	     -6.41271349	      2.04331333	     -1.52066775	     -7.07423591	     -4.63187607	     16.04000005	     -0.20338356	     10.31215217	     10.30173711	     -8.02366926	      6.74181320	     -5.82398022	     13.27049687	     -7.55105963	     -2.02327360	      7.29732912
      2.12500000	     -6.71855023	      5.85220013	    361.76248382	     -0.27634944	      1.37466630	     -1.05630953	     26.96589824	     -6.58230286	      1.83909063	     -0.42106867	     -7.04281283	     -4.33475462	     16.01685254	     -0.58961405	     10.37220048	     10.64039137	     -7.98955618	      7.00792334	     -5.89255308	     13.03121686	     -7.54731544	     -2.05324236	      7.04813315
      2.13000000	     -6.74306754	      5.93709863	    361.93903603	     -0.27088700	      1.37366482	     -1.05597086	     26.84363352	     -6.72520827	      1.63165315	      0.47733471	     -6.97817828	     -4.05811317	     15.93273441	     -0.94465939	     10.43004671	     10.91533797	     -7.97891619	      7.26715608	     -5.89038267	     12.84269483	     -7.52399446	     -2.12479886	      6.93105544
      2.13500000	     -6.75331293	      5.98769586	    362.10340227	     -0.26537877	      1.37271073	     -1.05558805	     26.74096259	     -6.81405250	      1.39634299	      1.19165626	     -6.85283846	     -3.80446482	     15.79150736	     -1.31991233	     10.44225264	     11.15922222	     -7.95887264	      7.52866334	     -5.86193659	     12.67250408	     -7.51345329	     -2.15503921	      6.80435081
      2.14000000	     -6.79215434	      6.02871376	    362.26002918	     -0.25986784	      1.37174806	     -1.05515631	     26.71796064	     -6.87254617	      1.17288752	      1.70695938	     -6.73891878	     -3.74501810	     15.69539131	     -1.65105763	     10.43969805	     11.39477750	     -7.95817772	      7.77701181	     -5.82867048	     12.65058738	     -7.46009816	     -2.20609175	      6.80550406
      2.14500000	     -6.68122837	      5.99673698	    362.38489794	     -0.25423404	      1.37100235	     -1.05470142	     26.53898289	     -6.83554489	      0.84688864	      2.07498518	     -6.48754901	     -3.47263875	     15.44387970	     -2.18460901	     10.34023544	     11.58819004	     -7.88747627	      8.04096170	     -5.72779479	     12.45868417	     -7.57620036	     -2.10541422	      6.63045766
